<?xml version="1.0" encoding="utf-8"?>
<!-- Generator: Adobe Illustrator 28.0.0, SVG Export Plug-In . SVG Version: 6.00 Build 0)  -->
<svg version="1.1" id="Слой_1" xmlns="http://www.w3.org/2000/svg" xmlns:xlink="http://www.w3.org/1999/xlink" x="0px" y="0px"
	 viewBox="0 0 1000 1000" enable-background="new 0 0 1000 1000" xml:space="preserve">
<circle fill="#0032A0" cx="500" cy="500" r="500"/>
<path fill="#FFFFFF" d="M272,412.6938782h-42.857132v90.959198
	c-37.5510254-33.6734619-75.0204163-67.3469238-113.4897919-100.959198v184.6122131h42.857132v-90.9591675
	c35.7550964,31.7346802,74.1428528,67.3469238,113.5102081,100.9591675L272,412.6938782z M367.0408325,587.2449341h-42.8571472
	V412.6938782h42.8571472V587.2449341z M478.122467,597.2449341
	c-30.3673401-57.1428223-60.7755127-122.795929-91.1428528-184.6122437h48.2449036l42.8571777,94.5714111l41.2652893-94.5714111
	h47.2653198c-29.4285889,61.9796143-58.9388123,127.3877563-88.4285889,184.6734619L478.122467,597.2449341z
	 M702.1428833,450.8367615h-72.5306396v30.1224365h72.6122437v38.0816345h-72.6122437v29.9387817h72.6122437v38.081604H586.7142944
	V412.5714111h115.5101929L702.1428833,450.8367615z M811.0408325,402.6939087
	c-29.4898071,58.204071-58.9795532,120.9592285-88.4693604,184.6122437h44.7754517l8.918335-20.918335h69.8164062
	l8.9591675,20.918335h46.3876953C870.8571777,523.6530762,840.4897461,460.0000305,811.0408325,402.6939087z
	 M788.8163452,533.6326904l22.2244873-50.7754822l21.4693604,50.7754822H788.8163452z"/>
</svg>
